<svg width="29" height="29" viewBox="0 0 29 29" fill="none" xmlns="http://www.w3.org/2000/svg">
<path d="M24.5441 1.29484V6.46151M27.1274 3.87817H21.9608M12.9411 2.34626C12.9964 2.04995 13.1536 1.78234 13.3855 1.58975C13.6174 1.39717 13.9093 1.29175 14.2108 1.29175C14.5122 1.29175 14.8041 1.39717 15.036 1.58975C15.2679 1.78234 15.4251 2.04995 15.4805 2.34626L16.838 9.52534C16.9344 10.0357 17.1825 10.5052 17.5498 10.8725C17.9171 11.2398 18.3865 11.4878 18.8969 11.5843L26.076 12.9418C26.3723 12.9971 26.6399 13.1544 26.8325 13.3863C27.0251 13.6181 27.1305 13.9101 27.1305 14.2115C27.1305 14.5129 27.0251 14.8049 26.8325 15.0368C26.6399 15.2686 26.3723 15.4259 26.076 15.4812L18.8969 16.8388C18.3865 16.9352 17.9171 17.1832 17.5498 17.5505C17.1825 17.9178 16.9344 18.3873 16.838 18.8977L15.4805 26.0768C15.4251 26.3731 15.2679 26.6407 15.036 26.8333C14.8041 27.0258 14.5122 27.1313 14.2108 27.1313C13.9093 27.1313 13.6174 27.0258 13.3855 26.8333C13.1536 26.6407 12.9964 26.3731 12.9411 26.0768L11.5835 18.8977C11.4871 18.3873 11.2391 17.9178 10.8718 17.5505C10.5045 17.1832 10.035 16.9352 9.52461 16.8388L2.34553 15.4812C2.04922 15.4259 1.7816 15.2686 1.58902 15.0368C1.39644 14.8049 1.29102 14.5129 1.29102 14.2115C1.29102 13.9101 1.39644 13.6181 1.58902 13.3863C1.7816 13.1544 2.04922 12.9971 2.34553 12.9418L9.52461 11.5843C10.035 11.4878 10.5045 11.2398 10.8718 10.8725C11.2391 10.5052 11.4871 10.0357 11.5835 9.52534L12.9411 2.34626ZM6.46078 24.5448C6.46078 25.9716 5.30418 27.1282 3.87744 27.1282C2.45071 27.1282 1.29411 25.9716 1.29411 24.5448C1.29411 23.1181 2.45071 21.9615 3.87744 21.9615C5.30418 21.9615 6.46078 23.1181 6.46078 24.5448Z" stroke="white" stroke-width="2.58333" stroke-linecap="round" stroke-linejoin="round"/>
</svg>
