<svg width="38" height="29" viewBox="0 0 38 29" fill="none" xmlns="http://www.w3.org/2000/svg">
<path d="M32.5063 8.875V6.25C32.5063 4.5924 31.8478 3.00269 30.6757 1.83058C29.5036 0.65848 27.9139 0 26.2563 0H11.2563C9.59866 0 8.00895 0.65848 6.83685 1.83058C5.66475 3.00269 5.00627 4.5924 5.00627 6.25V8.875C3.59341 9.16189 2.32317 9.92841 1.41079 11.0447C0.498415 12.1609 0 13.5583 0 15C0 16.4417 0.498415 17.8391 1.41079 18.9553C2.32317 20.0716 3.59341 20.8381 5.00627 21.125V26.25C5.00627 26.913 5.26966 27.5489 5.7385 28.0178C6.20734 28.4866 6.84322 28.75 7.50627 28.75H30.0063C30.6693 28.75 31.3052 28.4866 31.774 28.0178C32.2429 27.5489 32.5063 26.913 32.5063 26.25V21.125C33.9191 20.8381 35.1894 20.0716 36.1017 18.9553C37.0141 17.8391 37.5125 16.4417 37.5125 15C37.5125 13.5583 37.0141 12.1609 36.1017 11.0447C35.1894 9.92841 33.9191 9.16189 32.5063 8.875ZM11.2563 2.5H26.2563C27.2508 2.5 28.2047 2.89509 28.9079 3.59835C29.6112 4.30161 30.0063 5.25544 30.0063 6.25V8.875C28.5955 9.16507 27.3279 9.93266 26.4171 11.0484C25.5063 12.1641 25.008 13.5597 25.0063 15H12.5063C12.5045 13.5597 12.0062 12.1641 11.0954 11.0484C10.1846 9.93266 8.91703 9.16507 7.50627 8.875V6.25C7.50627 5.25544 7.90135 4.30161 8.60462 3.59835C9.30788 2.89509 10.2617 2.5 11.2563 2.5ZM31.3172 18.75H31.2563C30.9247 18.75 30.6068 18.8817 30.3724 19.1161C30.138 19.3505 30.0063 19.6685 30.0063 20V26.25H7.50627V20C7.50627 19.6685 7.37457 19.3505 7.14015 19.1161C6.90573 18.8817 6.58779 18.75 6.25627 18.75H6.19533C5.45636 18.738 4.73742 18.5079 4.1288 18.0886C3.52019 17.6693 3.04904 17.0795 2.77453 16.3933C2.50002 15.7071 2.4344 14.9551 2.5859 14.2318C2.73741 13.5084 3.09928 12.8459 3.62607 12.3276C4.15286 11.8092 4.82108 11.458 5.5468 11.3182C6.27252 11.1784 7.02337 11.2561 7.70505 11.5417C8.38673 11.8272 8.96884 12.3078 9.37826 12.9231C9.78769 13.5384 10.0062 14.2609 10.0063 15V21.25C10.0063 21.5815 10.138 21.8995 10.3724 22.1339C10.6068 22.3683 10.9247 22.5 11.2563 22.5C11.5878 22.5 11.9057 22.3683 12.1401 22.1339C12.3746 21.8995 12.5063 21.5815 12.5063 21.25V17.5H25.0063V21.25C25.0063 21.5815 25.138 21.8995 25.3724 22.1339C25.6068 22.3683 25.9247 22.5 26.2563 22.5C26.5878 22.5 26.9057 22.3683 27.1402 22.1339C27.3746 21.8995 27.5063 21.5815 27.5063 21.25V15C27.5064 14.2609 27.7248 13.5384 28.1343 12.9231C28.5437 12.3078 29.1258 11.8272 29.8075 11.5417C30.4892 11.2561 31.24 11.1784 31.9657 11.3182C32.6914 11.458 33.3597 11.8092 33.8865 12.3276C34.4133 12.8459 34.7751 13.5084 34.9266 14.2318C35.0781 14.9551 35.0125 15.7071 34.738 16.3933C34.4635 17.0795 33.9923 17.6693 33.3837 18.0886C32.7751 18.5079 32.0562 18.738 31.3172 18.75Z" fill="black"/>
</svg>
