<svg width="13" height="14" viewBox="0 0 13 14" fill="none" xmlns="http://www.w3.org/2000/svg">
<path d="M4.88911 6.11108V9.77775M7.33355 6.11108V9.77775M10.3891 3.05553V11.6111C10.3891 11.9352 10.2603 12.2461 10.0311 12.4753C9.80191 12.7045 9.49104 12.8333 9.16688 12.8333H3.05577C2.73162 12.8333 2.42074 12.7045 2.19153 12.4753C1.96232 12.2461 1.83355 11.9352 1.83355 11.6111V3.05553M0.611328 3.05553H11.6113M3.66688 3.05553V1.83331C3.66688 1.50915 3.79565 1.19828 4.02486 0.969065C4.25408 0.739853 4.56495 0.611084 4.88911 0.611084H7.33355C7.6577 0.611084 7.96858 0.739853 8.19779 0.969065C8.427 1.19828 8.55577 1.50915 8.55577 1.83331V3.05553" stroke="#6B6B73" stroke-width="1.22222" stroke-linecap="round" stroke-linejoin="round"/>
</svg>
