<svg width="22" height="21" viewBox="0 0 22 21" fill="none" xmlns="http://www.w3.org/2000/svg">
<path d="M10.0018 8.99973L13.0018 11.9997M8.97079 16.0307L20.3798 4.62373C20.7779 4.22564 21.0015 3.68572 21.0015 3.12273C21.0015 2.55975 20.7779 2.01982 20.3798 1.62173C19.9817 1.22364 19.4418 1 18.8788 1C18.3158 1 17.7759 1.22364 17.3778 1.62173L5.96879 13.0307M5.50179 19.9997C6.19402 19.9997 6.87071 19.7945 7.44629 19.4099C8.02186 19.0253 8.47046 18.4787 8.73537 17.8391C9.00027 17.1996 9.06959 16.4959 8.93454 15.8169C8.79949 15.138 8.46615 14.5143 7.97666 14.0249C7.48718 13.5354 6.86354 13.202 6.18461 13.067C5.50567 12.9319 4.80194 13.0012 4.1624 13.2662C3.52286 13.5311 2.97623 13.9797 2.59165 14.5552C2.20706 15.1308 2.00179 15.8075 2.00179 16.4997C2.00197 17.1653 1.74884 17.806 1.29379 18.2917C1.15358 18.4316 1.05805 18.6099 1.01931 18.8042C0.98058 18.9984 1.00039 19.1997 1.07622 19.3827C1.15206 19.5656 1.2805 19.7219 1.44528 19.8318C1.61006 19.9416 1.80375 20.0001 2.00179 19.9997H5.50179Z" stroke="black" stroke-width="2" stroke-linecap="round" stroke-linejoin="round"/>
</svg>
