<svg width="13" height="12" viewBox="0 0 13 12" fill="none" xmlns="http://www.w3.org/2000/svg">
<path d="M0.5 4.06595C0.500012 3.34658 0.702555 2.64413 1.08088 2.05138C1.4592 1.45863 1.99551 1.00347 2.61896 0.746011C3.24241 0.488554 3.92368 0.440912 4.57279 0.609379C5.22191 0.777845 5.80832 1.15449 6.25458 1.68958C6.28601 1.72579 6.32401 1.75466 6.36623 1.77439C6.40844 1.79413 6.45397 1.80431 6.49998 1.80431C6.546 1.80431 6.59152 1.79413 6.63374 1.77439C6.67595 1.75466 6.71395 1.72579 6.74538 1.68958C7.19024 1.15102 7.77679 0.771202 8.42696 0.600689C9.07712 0.430176 9.76007 0.477051 10.3849 0.735075C11.0097 0.9931 11.5468 1.45004 11.9246 2.04507C12.3025 2.6401 12.5031 3.345 12.5 4.06595C12.5 5.54634 11.6 6.65178 10.7 7.62146L7.40478 11.0561C7.29298 11.1944 7.15514 11.3056 7.00041 11.3821C6.84568 11.4586 6.67761 11.4988 6.50735 11.5C6.3371 11.5011 6.16857 11.4633 6.01295 11.3888C5.85734 11.3144 5.7182 11.2052 5.60478 11.0684L2.29999 7.62146C1.4 6.65178 0.5 5.5528 0.5 4.06595Z" fill="white" stroke="black" stroke-linecap="round" stroke-linejoin="round"/>
</svg>
