<svg width="13" height="12" viewBox="0 0 13 12" fill="none" xmlns="http://www.w3.org/2000/svg">
<path d="M11.084 10.4999C11.3934 10.4999 11.6901 10.377 11.9089 10.1582C12.1277 9.93942 12.2507 9.64267 12.2507 9.33325V3.49992C12.2507 3.1905 12.1277 2.89375 11.9089 2.67496C11.6901 2.45617 11.3934 2.33325 11.084 2.33325H6.47565C6.28053 2.33516 6.08805 2.28811 5.91583 2.19639C5.7436 2.10467 5.59713 1.97122 5.48982 1.80825L5.01732 1.10825C4.91109 0.946943 4.76647 0.814531 4.59644 0.7229C4.42641 0.631268 4.2363 0.583284 4.04315 0.583252H1.75065C1.44123 0.583252 1.14449 0.706168 0.925693 0.924961C0.706901 1.14375 0.583984 1.4405 0.583984 1.74992V9.33325C0.583984 9.64267 0.706901 9.93942 0.925693 10.1582C1.14449 10.377 1.44123 10.4999 1.75065 10.4999H11.084Z" stroke="#6B6B73" stroke-width="1.16667" stroke-linecap="round" stroke-linejoin="round"/>
</svg>
