<svg width="32" height="32" viewBox="0 0 32 32" fill="none" xmlns="http://www.w3.org/2000/svg">
<path d="M21.3073 6.65823H29.2971M25.3022 2.66333V10.6531M27.9655 15.3138V25.3011C27.9655 26.0074 27.6849 26.6848 27.1854 27.1843C26.686 27.6838 26.0086 27.9644 25.3022 27.9644H6.65936C5.95302 27.9644 5.27561 27.6838 4.77615 27.1843C4.27669 26.6848 3.99609 26.0074 3.99609 25.3011V6.65823C3.99609 5.95189 4.27669 5.27447 4.77615 4.77502C5.27561 4.27556 5.95302 3.99496 6.65936 3.99496H16.6466M27.9655 19.9746L23.8561 15.8651C23.3566 15.3659 22.6793 15.0854 21.9731 15.0854C21.2669 15.0854 20.5896 15.3659 20.0902 15.8651L7.99099 27.9644M14.6492 11.9848C14.6492 13.4556 13.4568 14.648 11.9859 14.648C10.515 14.648 9.32262 13.4556 9.32262 11.9848C9.32262 10.5139 10.515 9.32149 11.9859 9.32149C13.4568 9.32149 14.6492 10.5139 14.6492 11.9848Z" stroke="black" stroke-width="2.66327" stroke-linecap="round" stroke-linejoin="round"/>
</svg>
