<svg width="31" height="31" viewBox="0 0 31 31" fill="none" xmlns="http://www.w3.org/2000/svg">
<path d="M4.78239 18.6866C3.00428 16.5739 2.26413 14.0103 2.70398 11.4877C3.14384 8.96518 4.73272 6.66147 7.16568 5.01871C9.59864 3.37595 12.7043 2.50989 15.8865 2.58674C19.0688 2.66359 22.1034 3.67794 24.4081 5.43511C26.7128 7.19228 28.1251 9.56847 28.3739 12.1076C28.6228 14.6468 27.6907 17.17 25.7565 19.1931C23.8223 21.2162 21.0224 22.5965 17.894 23.0692C14.7656 23.5419 11.5292 23.0736 8.80593 21.7543M9.03972 28.4167C8.23867 27.8159 7.58828 27.0371 7.13994 26.1418C6.6916 25.2464 6.45759 24.2591 6.45639 23.2578M9.03972 20.6667C9.03972 22.0934 7.88312 23.25 6.45639 23.25C5.02965 23.25 3.87306 22.0934 3.87306 20.6667C3.87306 19.24 5.02965 18.0834 6.45639 18.0834C7.88312 18.0834 9.03972 19.24 9.03972 20.6667Z" stroke="black" stroke-width="2.58333" stroke-linecap="round" stroke-linejoin="round"/>
</svg>
