<svg width="103" height="18" viewBox="0 0 103 18" fill="none" xmlns="http://www.w3.org/2000/svg">
<path d="M55.5734 0.57983L61.4373 0.579328C62.6091 2.30078 64.0561 4.68043 65.255 6.28476C66.3959 4.4006 67.7437 2.42449 68.9788 0.590792C70.9218 0.532858 73.1284 0.588302 75.0822 0.5964C75.1066 6.16653 75.1014 11.7367 75.0665 17.3067L69.387 17.3164L69.3871 14.5024L69.3757 8.6775C67.9806 10.3474 66.5206 12.5961 65.104 14.4179C64.4296 13.6148 63.6854 12.4945 63.0778 11.6186C62.4069 10.6578 61.7236 9.70586 61.0282 8.76284L61.0385 17.3231L55.5645 17.3199L55.5734 0.57983Z" fill="black"/>
<path d="M24.8888 0.0413926C29.838 -0.431299 34.2327 3.19885 34.7033 8.14828C35.1739 13.0977 31.5419 17.491 26.5923 17.9596C21.6456 18.4278 17.2555 14.7984 16.7852 9.85192C16.3148 4.90535 19.9425 0.51371 24.8888 0.0413926Z" fill="black"/>
<path d="M25.3159 5.29963C27.3343 5.07375 29.1571 6.51799 29.3986 8.53459C29.6402 10.5511 28.2101 12.385 26.1954 12.6422C24.1586 12.9022 22.3001 11.4528 22.0559 9.41406C21.8117 7.37541 23.2754 5.52813 25.3159 5.29963Z" fill="white"/>
<path d="M44.7583 0.0185943C49.7017 -0.213391 53.9001 3.59916 54.1442 8.54186C54.3883 13.4846 50.5859 17.6924 45.6438 17.9486C40.6846 18.2056 36.4592 14.3872 36.2143 9.42744C35.9693 4.46767 39.7979 0.251451 44.7583 0.0185943Z" fill="black"/>
<path d="M44.4207 5.37235C46.4304 4.95385 48.3963 6.25282 48.7995 8.26555C49.2028 10.2784 47.8888 12.2343 45.873 12.6223C43.8787 13.006 41.9482 11.7093 41.5492 9.71802C41.1504 7.72658 42.4325 5.78636 44.4207 5.37235Z" fill="white"/>
<path d="M0.0895922 0.609446C1.9701 0.587519 3.88554 0.60521 5.77231 0.608325C7.49451 0.638724 9.07343 0.507159 10.7771 0.82972C14.442 1.52368 16.2657 4.62097 15.5355 8.20415C15.1661 10.0165 14.0452 10.977 12.5492 11.9361C13.8124 13.7096 15.2841 15.5884 16.6065 17.3179L15.1704 17.3212L9.99102 17.3114C8.91781 15.8729 7.8623 14.4214 6.82447 12.9571L5.6927 12.9593C5.70242 14.414 5.70067 15.8688 5.68734 17.3235L0 17.3192C0.0156733 11.7809 -0.0119108 6.24088 0.0217407 0.703139C0.0443537 0.671992 0.0669668 0.640718 0.0895922 0.609446Z" fill="black"/>
<path d="M5.65442 5.43913C7.02253 5.44523 9.95897 5.02375 10.0307 6.85471C10.0548 7.46918 10.0234 7.60386 9.64414 8.08527C8.72193 8.78584 6.87502 8.58076 5.66227 8.57142C5.64059 7.54493 5.65541 6.46935 5.65442 5.43913Z" fill="white"/>
<path d="M83.048 0.600647C85.0403 0.513185 87.8703 0.577471 89.8929 0.606251C90.7232 1.90248 91.5737 3.18575 92.444 4.45543C93.2949 3.27084 94.1982 1.83707 94.9842 0.603761C97.2182 0.583204 99.4524 0.588686 101.686 0.620456C99.8315 3.23708 97.8975 6.0888 96.0867 8.74591C98.1096 11.5879 100.116 14.4419 102.105 17.3077L100.966 17.316C99.0507 17.3076 97.1355 17.3102 95.2205 17.3237C94.297 16.1266 93.2151 14.3788 92.3591 13.0776L89.5363 17.3214C87.2606 17.3523 84.8986 17.3235 82.6191 17.317C83.2602 16.4834 84.0565 15.2691 84.6751 14.3834L88.7066 8.62231L85.2284 3.69768C84.635 2.86954 83.5007 1.41322 83.048 0.600647Z" fill="black"/>
<path d="M76.4223 0.587402L82.0571 0.588277C82.0961 2.48876 82.0626 4.49701 82.0657 6.40572C82.09 10.042 82.0813 13.6785 82.0394 17.3147L76.4075 17.3061C76.4217 11.783 76.3263 6.09873 76.4223 0.587402Z" fill="black"/>
</svg>
