<svg width="21" height="21" viewBox="0 0 21 21" fill="none" xmlns="http://www.w3.org/2000/svg">
<path d="M19 9V3C19 2.46957 18.7893 1.96086 18.4142 1.58579C18.0391 1.21071 17.5304 1 17 1H3C2.46957 1 1.96086 1.21071 1.58579 1.58579C1.21071 1.96086 1 2.46957 1 3V17C1 17.5304 1.21071 18.0391 1.58579 18.4142C1.96086 18.7893 2.46957 19 3 19H9M10.034 10.681C9.99795 10.5906 9.9892 10.4915 10.0088 10.3962C10.0285 10.3008 10.0756 10.2133 10.1445 10.1445C10.2133 10.0756 10.3008 10.0285 10.3962 10.0088C10.4915 9.9892 10.5906 9.99795 10.681 10.034L19.681 13.534C19.7775 13.5717 19.8599 13.6384 19.9168 13.725C19.9737 13.8116 20.0023 13.9137 19.9987 14.0172C19.9951 14.1207 19.9594 14.2206 19.8966 14.3029C19.8338 14.3853 19.7469 14.4461 19.648 14.477L16.204 15.545C16.0486 15.593 15.9073 15.6783 15.7923 15.7933C15.6773 15.9083 15.592 16.0496 15.544 16.205L14.477 19.648C14.4461 19.7469 14.3853 19.8338 14.3029 19.8966C14.2206 19.9594 14.1207 19.9951 14.0172 19.9987C13.9137 20.0023 13.8116 19.9737 13.725 19.9168C13.6384 19.8599 13.5717 19.7775 13.534 19.681L10.034 10.681Z" stroke="black" stroke-width="2" stroke-linecap="round" stroke-linejoin="round"/>
</svg>
